<svg xmlns="http://www.w3.org/2000/svg" version="1.1" xmlns:xlink="http://www.w3.org/1999/xlink" width="196" height="236.99997"><svg width="196" height="236.99997" viewBox="0 0 51.858334 62.706242" version="1.1" id="SvgjsSvg1072" xml:space="preserve" xmlns="http://www.w3.org/2000/svg" xmlns:svg="http://www.w3.org/2000/svg"><defs id="SvgjsDefs1071"></defs><g id="SvgjsG1070" transform="translate(-69.717708,-99.615628)"><path style="display:none;fill:none;stroke:#d11c19;stroke-width:0.264583" d="m 82.473279,134.66204 c 0.10016,-4.75478 -0.269183,-9.52612 0.143463,-14.26718 0.107686,-3.14654 3.111363,-6.23158 6.379331,-5.32585 3.100113,0.58191 4.209345,4.00112 4.181486,6.77677 -0.194222,7.72979 -0.105537,15.46734 -0.114681,23.20126 0.132941,4.05173 0.152358,8.79387 -3.277295,11.62948 -4.283539,3.94281 -12.347823,3.1469 -14.948162,-2.34357 -1.752984,-4.31504 -1.488643,-9.11239 -1.65673,-13.68522 0.105517,-9.84643 -0.08094,-19.6981 0.114455,-29.54159 0.12553,-2.96872 1.283785,-6.49403 4.470753,-7.34993 3.770575,-1.01165 7.731233,-0.41489 11.586496,-0.5882 6.99939,0.0446 14.003345,-0.0736 20.999695,0.065 3.13782,0.0988 6.78532,1.47941 7.62204,4.84821 0.69101,3.26936 0.21477,6.65369 0.35466,9.97452 -0.0699,5.53423 0.16777,11.08138 -0.14688,16.60561 -0.1574,3.03392 -2.49022,5.71672 -5.55276,6.02713 -2.9733,0.53859 -5.99662,0.087 -8.98921,0.0586" id="SvgjsPath1069"></path><path style="fill:none;stroke:#de1e18;stroke-width:6.61458;stroke-linecap:round;stroke-linejoin:miter;stroke-dasharray:none;stroke-opacity:1" d="m 83.476042,134.9375 v -14.81667 a 5.0270833,5.0270833 135 0 1 5.027083,-5.02708 H 88.9 a 5.0270833,5.0270833 45 0 1 5.027083,5.02708 v 28.87864 A 10.015114,10.015114 135 0 1 83.911969,159.01458 H 83.040778 A 10.015778,10.015778 45 0 1 73.025,148.9988 V 107.95 a 5.0270833,5.0270833 135 0 1 5.027083,-5.02708 h 35.189587 a 5.0270833,5.0270833 45 0 1 5.02708,5.02708 v 25.92917 a 5.0270833,5.0270833 135 0 1 -5.02708,5.02708 h -9.525" id="SvgjsPath1068"></path></g></svg><style>@media (prefers-color-scheme: light) { :root { filter: none; } }
@media (prefers-color-scheme: dark) { :root { filter: none; } }
</style></svg>